<mxfile host="app.diagrams.net" modified="2021-07-02T03:13:25.174Z" agent="5.0 (Windows NT 10.0; Win64; x64) AppleWebKit/537.36 (KHTML, like Gecko) Chrome/91.0.4472.114 Safari/537.36" etag="buJje9Cikfdv3U3oGN07" version="14.8.3" type="github">
  <diagram id="JUoLyplBjpB3gphxths6" name="Page-1">
    <mxGraphModel dx="1422" dy="706" grid="1" gridSize="10" guides="1" tooltips="1" connect="1" arrows="1" fold="1" page="1" pageScale="1" pageWidth="827" pageHeight="1169" math="0" shadow="0">
      <root>
        <mxCell id="0" />
        <mxCell id="1" parent="0" />
        <mxCell id="AguCf1l3qL-BzieiZOaN-6" value="" style="edgeStyle=orthogonalEdgeStyle;rounded=0;orthogonalLoop=1;jettySize=auto;html=1;" parent="1" source="AguCf1l3qL-BzieiZOaN-1" target="AguCf1l3qL-BzieiZOaN-3" edge="1">
          <mxGeometry relative="1" as="geometry" />
        </mxCell>
        <mxCell id="AguCf1l3qL-BzieiZOaN-1" value="某个子公司发起建档，填写基本信息以及采购信息" style="rounded=0;whiteSpace=wrap;html=1;" parent="1" vertex="1">
          <mxGeometry x="120" y="200" width="120" height="60" as="geometry" />
        </mxCell>
        <mxCell id="AguCf1l3qL-BzieiZOaN-7" value="" style="edgeStyle=orthogonalEdgeStyle;rounded=0;orthogonalLoop=1;jettySize=auto;html=1;" parent="1" source="AguCf1l3qL-BzieiZOaN-3" target="AguCf1l3qL-BzieiZOaN-4" edge="1">
          <mxGeometry relative="1" as="geometry" />
        </mxCell>
        <mxCell id="T_XAAXNo-ivbK55jwlrP-2" style="edgeStyle=orthogonalEdgeStyle;rounded=0;orthogonalLoop=1;jettySize=auto;html=1;entryX=0;entryY=0.5;entryDx=0;entryDy=0;" edge="1" parent="1" source="AguCf1l3qL-BzieiZOaN-3" target="T_XAAXNo-ivbK55jwlrP-1">
          <mxGeometry relative="1" as="geometry" />
        </mxCell>
        <mxCell id="AguCf1l3qL-BzieiZOaN-3" value="供应商记录初始化为建档待审核状态" style="rounded=0;whiteSpace=wrap;html=1;" parent="1" vertex="1">
          <mxGeometry x="120" y="320" width="120" height="60" as="geometry" />
        </mxCell>
        <mxCell id="AguCf1l3qL-BzieiZOaN-8" value="" style="edgeStyle=orthogonalEdgeStyle;rounded=0;orthogonalLoop=1;jettySize=auto;html=1;" parent="1" source="AguCf1l3qL-BzieiZOaN-4" target="AguCf1l3qL-BzieiZOaN-5" edge="1">
          <mxGeometry relative="1" as="geometry" />
        </mxCell>
        <mxCell id="AguCf1l3qL-BzieiZOaN-27" style="edgeStyle=orthogonalEdgeStyle;rounded=0;orthogonalLoop=1;jettySize=auto;html=1;entryX=0.5;entryY=0;entryDx=0;entryDy=0;" parent="1" source="AguCf1l3qL-BzieiZOaN-4" target="AguCf1l3qL-BzieiZOaN-26" edge="1">
          <mxGeometry relative="1" as="geometry" />
        </mxCell>
        <mxCell id="AguCf1l3qL-BzieiZOaN-28" value="否" style="edgeLabel;html=1;align=center;verticalAlign=middle;resizable=0;points=[];" parent="AguCf1l3qL-BzieiZOaN-27" vertex="1" connectable="0">
          <mxGeometry x="-0.2833" y="2" relative="1" as="geometry">
            <mxPoint as="offset" />
          </mxGeometry>
        </mxCell>
        <mxCell id="AguCf1l3qL-BzieiZOaN-4" value="集团审核" style="rhombus;whiteSpace=wrap;html=1;" parent="1" vertex="1">
          <mxGeometry x="120" y="440" width="120" height="80" as="geometry" />
        </mxCell>
        <mxCell id="AguCf1l3qL-BzieiZOaN-16" style="edgeStyle=orthogonalEdgeStyle;rounded=0;orthogonalLoop=1;jettySize=auto;html=1;" parent="1" source="AguCf1l3qL-BzieiZOaN-5" target="AguCf1l3qL-BzieiZOaN-13" edge="1">
          <mxGeometry relative="1" as="geometry" />
        </mxCell>
        <mxCell id="AguCf1l3qL-BzieiZOaN-29" value="是" style="edgeLabel;html=1;align=center;verticalAlign=middle;resizable=0;points=[];" parent="AguCf1l3qL-BzieiZOaN-16" vertex="1" connectable="0">
          <mxGeometry x="-0.3385" relative="1" as="geometry">
            <mxPoint as="offset" />
          </mxGeometry>
        </mxCell>
        <mxCell id="AguCf1l3qL-BzieiZOaN-5" value="供应商记录流转为已核准状态" style="rounded=0;whiteSpace=wrap;html=1;" parent="1" vertex="1">
          <mxGeometry x="120" y="580" width="120" height="60" as="geometry" />
        </mxCell>
        <mxCell id="AguCf1l3qL-BzieiZOaN-12" value="" style="swimlane;startSize=0;dashed=1;fillColor=none;gradientColor=none;" parent="1" vertex="1">
          <mxGeometry x="60" y="750" width="460" height="550" as="geometry" />
        </mxCell>
        <mxCell id="AguCf1l3qL-BzieiZOaN-18" style="edgeStyle=orthogonalEdgeStyle;rounded=0;orthogonalLoop=1;jettySize=auto;html=1;entryX=0.5;entryY=0;entryDx=0;entryDy=0;" parent="AguCf1l3qL-BzieiZOaN-12" source="AguCf1l3qL-BzieiZOaN-9" target="AguCf1l3qL-BzieiZOaN-10" edge="1">
          <mxGeometry relative="1" as="geometry" />
        </mxCell>
        <mxCell id="AguCf1l3qL-BzieiZOaN-25" style="edgeStyle=orthogonalEdgeStyle;rounded=0;orthogonalLoop=1;jettySize=auto;html=1;entryX=0.5;entryY=0;entryDx=0;entryDy=0;" parent="AguCf1l3qL-BzieiZOaN-12" source="AguCf1l3qL-BzieiZOaN-9" target="AguCf1l3qL-BzieiZOaN-23" edge="1">
          <mxGeometry relative="1" as="geometry" />
        </mxCell>
        <mxCell id="AguCf1l3qL-BzieiZOaN-9" value="子公司质管部审核" style="rhombus;whiteSpace=wrap;html=1;fillColor=none;" parent="AguCf1l3qL-BzieiZOaN-12" vertex="1">
          <mxGeometry x="60" y="110" width="120" height="80" as="geometry" />
        </mxCell>
        <mxCell id="AguCf1l3qL-BzieiZOaN-20" style="edgeStyle=orthogonalEdgeStyle;rounded=0;orthogonalLoop=1;jettySize=auto;html=1;entryX=0.5;entryY=0;entryDx=0;entryDy=0;" parent="AguCf1l3qL-BzieiZOaN-12" source="AguCf1l3qL-BzieiZOaN-10" target="AguCf1l3qL-BzieiZOaN-14" edge="1">
          <mxGeometry relative="1" as="geometry" />
        </mxCell>
        <mxCell id="AguCf1l3qL-BzieiZOaN-10" value="质量负责人审核状态" style="rounded=0;whiteSpace=wrap;html=1;" parent="AguCf1l3qL-BzieiZOaN-12" vertex="1">
          <mxGeometry x="60" y="240" width="120" height="60" as="geometry" />
        </mxCell>
        <mxCell id="AguCf1l3qL-BzieiZOaN-17" style="edgeStyle=orthogonalEdgeStyle;rounded=0;orthogonalLoop=1;jettySize=auto;html=1;entryX=0.5;entryY=0;entryDx=0;entryDy=0;" parent="AguCf1l3qL-BzieiZOaN-12" source="AguCf1l3qL-BzieiZOaN-13" target="AguCf1l3qL-BzieiZOaN-9" edge="1">
          <mxGeometry relative="1" as="geometry" />
        </mxCell>
        <mxCell id="AguCf1l3qL-BzieiZOaN-13" value="公司层状态设置为首营审核状态" style="rounded=0;whiteSpace=wrap;html=1;" parent="AguCf1l3qL-BzieiZOaN-12" vertex="1">
          <mxGeometry x="60" y="20" width="120" height="60" as="geometry" />
        </mxCell>
        <mxCell id="AguCf1l3qL-BzieiZOaN-21" style="edgeStyle=orthogonalEdgeStyle;rounded=0;orthogonalLoop=1;jettySize=auto;html=1;entryX=0.5;entryY=0;entryDx=0;entryDy=0;" parent="AguCf1l3qL-BzieiZOaN-12" source="AguCf1l3qL-BzieiZOaN-14" target="AguCf1l3qL-BzieiZOaN-15" edge="1">
          <mxGeometry relative="1" as="geometry" />
        </mxCell>
        <mxCell id="AguCf1l3qL-BzieiZOaN-24" style="edgeStyle=orthogonalEdgeStyle;rounded=0;orthogonalLoop=1;jettySize=auto;html=1;entryX=0.5;entryY=0;entryDx=0;entryDy=0;" parent="AguCf1l3qL-BzieiZOaN-12" source="AguCf1l3qL-BzieiZOaN-14" target="AguCf1l3qL-BzieiZOaN-23" edge="1">
          <mxGeometry relative="1" as="geometry" />
        </mxCell>
        <mxCell id="AguCf1l3qL-BzieiZOaN-14" value="质量负责人审核" style="rhombus;whiteSpace=wrap;html=1;fillColor=none;gradientColor=none;" parent="AguCf1l3qL-BzieiZOaN-12" vertex="1">
          <mxGeometry x="60" y="330" width="120" height="80" as="geometry" />
        </mxCell>
        <mxCell id="AguCf1l3qL-BzieiZOaN-15" value="设置为有效状态，并更新供应商的mtime，推送更新" style="rounded=0;whiteSpace=wrap;html=1;fillColor=none;gradientColor=none;" parent="AguCf1l3qL-BzieiZOaN-12" vertex="1">
          <mxGeometry x="60" y="450" width="120" height="60" as="geometry" />
        </mxCell>
        <mxCell id="AguCf1l3qL-BzieiZOaN-23" value="删除此公司的采购信息，变成未引入状态" style="rounded=0;whiteSpace=wrap;html=1;fillColor=none;gradientColor=none;" parent="AguCf1l3qL-BzieiZOaN-12" vertex="1">
          <mxGeometry x="260" y="450" width="120" height="60" as="geometry" />
        </mxCell>
        <mxCell id="AguCf1l3qL-BzieiZOaN-22" value="公司层状态" style="text;html=1;strokeColor=none;fillColor=none;align=center;verticalAlign=middle;whiteSpace=wrap;rounded=0;" parent="AguCf1l3qL-BzieiZOaN-12" vertex="1">
          <mxGeometry x="250" y="20" width="170" height="20" as="geometry" />
        </mxCell>
        <mxCell id="AguCf1l3qL-BzieiZOaN-26" value="供应商为已驳回状态" style="rounded=0;whiteSpace=wrap;html=1;fillColor=none;gradientColor=none;" parent="1" vertex="1">
          <mxGeometry x="320" y="580" width="120" height="60" as="geometry" />
        </mxCell>
        <mxCell id="T_XAAXNo-ivbK55jwlrP-1" value="公司层状态初始化为待集团审核状态" style="rounded=0;whiteSpace=wrap;html=1;dashed=1;" vertex="1" parent="1">
          <mxGeometry x="360" y="320" width="120" height="60" as="geometry" />
        </mxCell>
      </root>
    </mxGraphModel>
  </diagram>
</mxfile>
